<?xml version="1.0" standalone="no"?>
<!DOCTYPE svg PUBLIC "-//W3C//DTD SVG 20010904//EN"
 "http://www.w3.org/TR/2001/REC-SVG-20010904/DTD/svg10.dtd">
<svg version="1.0" xmlns="http://www.w3.org/2000/svg"
 width="482.000000pt" height="482.000000pt" viewBox="0 0 482.000000 482.000000"
 preserveAspectRatio="xMidYMid meet">
<metadata>
Created by potrace 1.14, written by Peter Selinger 2001-2017
</metadata>
<g transform="translate(0.000000,482.000000) scale(0.100000,-0.100000)"
fill="#000000" stroke="none">
<path d="M62 4245 c-6 -10 -11 -3610 -5 -3630 2 -7 599 -10 1771 -9 972 1
1774 2 1783 3 15 1 17 81 17 966 0 712 -3 963 -12 958 -9 -6 -51 -40 -166
-137 -14 -11 -52 -43 -85 -71 -33 -27 -62 -52 -65 -55 -3 -3 -32 -27 -65 -54
-33 -27 -64 -55 -70 -61 -6 -8 -10 -203 -10 -543 1 -473 -1 -532 -15 -533 -8
0 -599 -1 -1312 -2 -1292 -2 -1298 -2 -1299 18 -4 145 0 2678 5 2682 4 5 2527
8 2607 4 13 -1 15 -30 15 -231 -1 -127 2 -230 7 -230 4 0 111 86 236 190 l229
190 -1 278 -2 277 -1778 0 c-1168 0 -1781 -3 -1785 -10z"/>
<path d="M4334 4171 c-21 -16 -534 -466 -1139 -1000 -605 -534 -1102 -971
-1105 -971 -3 0 -83 161 -179 358 -96 196 -185 372 -198 390 -33 44 -78 66
-138 66 -42 0 -73 -12 -191 -71 -93 -47 -151 -83 -171 -106 -37 -42 -50 -101
-33 -153 19 -56 627 -1294 647 -1317 43 -48 153 -63 208 -28 17 10 633 552
1371 1204 941 832 1346 1195 1357 1220 21 43 22 97 3 140 -19 44 -200 247
-245 274 -55 35 -136 32 -187 -6z"/>
</g>
</svg>
